<?xml version="1.0" encoding="UTF-8" standalone="no"?>
<!-- Created with Inkscape (http://www.inkscape.org/) -->

<svg
   width="793.70081"
   height="1122.5197"
   viewBox="0 0 210 297"
   version="1.1"
   id="svg5"
   sodipodi:docname="logo.svg"
   inkscape:version="1.1.2 (b8e25be833, 2022-02-05)"
   xmlns:inkscape="http://www.inkscape.org/namespaces/inkscape"
   xmlns:sodipodi="http://sodipodi.sourceforge.net/DTD/sodipodi-0.dtd"
   xmlns="http://www.w3.org/2000/svg"
   xmlns:svg="http://www.w3.org/2000/svg">
  <sodipodi:namedview
     id="namedview7"
     pagecolor="#000000"
     bordercolor="#666666"
     borderopacity="1.0"
     inkscape:pageshadow="2"
     inkscape:pageopacity="0"
     inkscape:pagecheckerboard="false"
     inkscape:document-units="px"
     showgrid="false"
     inkscape:zoom="0.5"
     inkscape:cx="851"
     inkscape:cy="758"
     inkscape:window-width="1920"
     inkscape:window-height="1017"
     inkscape:window-x="1358"
     inkscape:window-y="-8"
     inkscape:window-maximized="1"
     inkscape:current-layer="g1020"
     units="px"
     showguides="true"
     showborder="true"
     inkscape:showpageshadow="true" />
  <defs
     id="defs2">
    <style
       id="style824">
      .st0 {
        fill: #fff;
      }

      .st1 {
        fill: #f1f2f2;
      }

      .st1, .st2 {
        display: none;
      }

      .st3 {
        fill: #808285;
      }

      .st4 {
        fill: #002e6d;
      }

      .st5 {
        fill: #76777a;
      }
    </style>
  </defs>
  <g
     inkscape:label="Layer 1"
     inkscape:groupmode="layer"
     id="layer1">
    <rect
       class="st1"
       x="31.499107"
       y="67.376923"
       width="142.50458"
       height="142.50458"
       id="rect828"
       style="stroke-width:0.264583" />
    <g
       class="st2"
       id="g960"
       transform="matrix(0.26458333,0,0,0.26458333,27.742024,63.619838)">
      <g
         id="g888">
        <g
           id="g844">
          <path
             class="st4"
             d="m 290,268.9 c 3.4,-1.3 5.2,-3 6.4,-5.1 2.3,-3.9 3.2,-11.4 -0.8,-13.9 -0.7,-0.4 -2.3,5.5 -1.8,5.8 2.5,1.6 2.5,4.1 2.1,4.8 -2.3,4.5 -13.3,5.2 -18,4.2 -1.7,-0.3 -2.7,-0.7 -2.8,-2.2 0,-1.1 1.8,-3.2 4.3,-2.3 6.6,2.2 8.8,10.9 8.8,11 0,2.5 -3.2,6.2 -9.1,10.5 -4.1,3 -9.5,5.7 -15,7.1 -7.5,1.8 -13.5,-2.4 -15,-9.7 -0.9,-4.5 -0.8,-10.5 -0.4,-13.2 -2.1,6.3 -2.8,26.2 11.7,29.1 12.8,2.5 26.7,-13.8 28.2,-17.6 0.8,-1.9 1.3,-4.8 1.4,-5.7 0.8,-6.6 -4.8,-16.6 -9.8,-17.1 -3.8,-0.4 -7.7,3.9 -7.7,9.3 0,3.6 1.4,5.5 4.1,6 3.2,0.6 5.6,0.7 11.5,-0.5 l 2,-0.6 z"
             id="path830" />
          <path
             class="st4"
             d="m 265.8,308.9 c 6.6,-3.7 9.6,-6.5 12.5,-7 0,0 -0.3,0.4 -0.5,1.1 -2.5,6 0.4,7.9 3.1,7.9 5.7,0 10.5,-4.2 12.5,-6.3 0.2,0.7 0.7,2.4 2.3,2.6 2.9,0.4 5.7,-1.2 7.5,-5.6 1.6,-3.7 1.7,-10.5 -1.9,-12.4 -0.6,-0.3 -1.4,5.2 -1,5.4 2.2,1.2 2.4,3.4 2.2,4.1 -0.8,2.3 -3.8,3.6 -5.3,3.4 -1.3,-0.2 -2.2,-1.5 -1.9,-2.4 0.3,-0.8 0.5,-4.6 0,-3.5 -1,2.3 -8.2,10.6 -14.8,9.1 -2.1,-0.4 -1.3,-3.5 -0.6,-4.1 0.4,-0.3 0.5,-1.4 0.7,-3 0.2,-2 0,-2.7 -0.6,-2.8 -2.7,-0.3 -8.2,4.4 -14.9,8.1 0,0 -2.2,1.6 -5.2,2.4 -5.2,1.3 -10.2,-0.8 -11.8,-6.6 -0.7,-2.8 -1.1,-7.1 0,-11.1 -0.7,1.5 -2.1,6.8 -1.6,12.2 0.6,7.4 8.2,14.5 19.4,8.3 z"
             id="path832" />
          <path
             class="st4"
             d="m 281.8,242.9 c 0.8,-0.5 1,-0.8 0.7,-1 -1.5,-1.2 -3.8,-2.9 -4.3,-3 -0.3,0 -0.9,0.4 -1.6,0.9 -1.2,0.9 -1.2,1.1 -1.1,1.4 0,0.2 1.1,0.9 2,1.5 1,0.7 1.9,1.3 2.2,1.3 0.3,0 1.4,-0.6 2.1,-1.1 z"
             id="path834" />
          <path
             class="st4"
             d="m 283.3,247.8 c 0.8,-0.5 1,-0.8 0.7,-1 -1.5,-1.2 -3.8,-2.9 -4.3,-3 -0.3,0 -0.9,0.4 -1.6,0.9 -1.2,0.9 -1.2,1.1 -1.1,1.4 0.1,0.2 1.1,0.9 2,1.5 1,0.7 1.9,1.3 2.2,1.3 0.3,0 1.4,-0.6 2,-1 z"
             id="path836" />
          <path
             class="st4"
             d="m 299.4,275.1 c 0.8,-0.5 1,-0.8 0.7,-1 -1.5,-1.2 -3.8,-2.9 -4.3,-3 -0.3,0 -0.9,0.4 -1.6,0.9 -1.2,0.9 -1.2,1.1 -1.1,1.4 0,0.2 1.1,0.9 2,1.5 1,0.7 1.9,1.3 2.2,1.3 0.3,0 1.4,-0.6 2.1,-1 z"
             id="path838" />
          <path
             class="st4"
             d="m 300.9,280 c 0.8,-0.5 1,-0.8 0.7,-1 -1.5,-1.2 -3.8,-2.9 -4.3,-3 -0.3,0 -0.9,0.4 -1.6,0.9 -1.2,0.9 -1.2,1.1 -1.1,1.4 0,0.2 1.1,0.9 2,1.5 1,0.7 1.9,1.3 2.2,1.3 0.3,0 1.4,-0.6 2.1,-1.1 z"
             id="path840" />
          <path
             class="st4"
             d="m 276.8,215.2 c 4.1,19.3 -21.9,28.7 -26.4,45.9 1.1,-16.9 27.8,-27.1 26.4,-45.9 z"
             id="path842" />
        </g>
        <g
           id="g856">
          <path
             class="st5"
             d="m 292.7,291.2 c 0.8,-0.6 1.1,-0.9 0.7,-1.2 -1.7,-1.2 -4.5,-3 -5,-3 -0.4,0 -0.9,0.5 -1.8,1.1 -1.3,1.1 -1.3,1.3 -1.1,1.6 0.1,0.2 1.3,0.9 2.4,1.5 1.2,0.7 2.3,1.3 2.5,1.3 0.3,0 1.5,-0.8 2.2,-1.3 z"
             id="path846" />
          <path
             class="st5"
             d="m 312.8,291.9 c 1.2,2.2 1.9,4.5 1.6,7 -0.1,0.9 -0.7,4.6 -1.5,6.4 -1.6,3.7 -16.2,21 -28.9,18.3 -14.4,-3 -13.5,-22.9 -11.3,-29.2 -0.5,2.7 -0.7,8.7 0.2,13.2 1.4,7.3 7.4,11.6 14.9,9.8 5.5,-1.3 11.2,-4.8 15.4,-7.7 6,-4.2 9.4,-8.2 9.5,-10.7 0.1,-4.3 -11.1,-10 -7,-19.1 0,1.5 1,3.2 2.5,5.1 0,0 1.2,1.5 3.7,1.6 2.2,0.1 5.5,-0.9 6.7,-3.3 0.3,-0.7 0.3,-3.3 -2.1,-4.8 -0.5,-0.3 1.2,-6.3 1.8,-5.8 4,2.6 2.9,9.9 0.8,13.9 -2.2,4.2 -5,5 -6,5.2 v 0 z"
             id="path848" />
          <path
             class="st5"
             d="m 312.5,265 c 0.8,-0.5 1,-0.8 0.7,-1 -1.5,-1.2 -3.8,-2.9 -4.3,-3 -0.3,0 -0.9,0.4 -1.6,0.9 -1.2,0.9 -1.2,1.1 -1.1,1.4 0.1,0.2 1.1,0.9 2,1.5 1,0.7 1.9,1.3 2.2,1.3 0.3,0 1.4,-0.6 2.1,-1 z"
             id="path850" />
          <path
             class="st5"
             d="m 314,269.9 c 0.8,-0.5 1,-0.8 0.7,-1 -1.5,-1.2 -3.8,-2.9 -4.3,-3 -0.3,0 -0.9,0.4 -1.6,0.9 -1.2,0.9 -1.2,1.1 -1.1,1.4 0,0.2 1.1,0.9 2,1.5 1,0.7 1.9,1.3 2.2,1.3 0.3,0 1.4,-0.6 2.1,-1 z"
             id="path852" />
          <path
             class="st5"
             d="m 257.4,268.2 c 9.1,3.8 19.2,8.6 17.1,15 4.2,-7.7 -7.6,-12.4 -16.3,-16.4 -9.8,-4.4 -19.4,-7.9 -9.7,-16.3 -11,8.7 -1.5,13.2 8.9,17.6 z"
             id="path854" />
        </g>
        <g
           id="g872">
          <path
             class="st4"
             d="m 234.7,335.1 h -3.9 v -1.4 h 9.5 v 1.4 h -3.9 v 11.4 h -1.7 z"
             id="path858" />
          <path
             class="st4"
             d="m 247,342.5 -1.3,4 H 244 l 4.4,-12.8 h 2 l 4.4,12.8 H 253 l -1.4,-4 h -4.5 z m 4.2,-1.3 -1.3,-3.7 c -0.3,-0.8 -0.5,-1.6 -0.7,-2.3 v 0 c -0.2,0.8 -0.4,1.5 -0.6,2.3 l -1.3,3.7 z"
             id="path860" />
          <path
             class="st4"
             d="m 261.1,346.5 v -12.8 h 1.8 l 4.1,6.5 c 0.9,1.5 1.7,2.8 2.3,4.2 v 0 c -0.2,-1.7 -0.2,-3.3 -0.2,-5.3 v -5.4 h 1.6 v 12.8 H 269 l -4.1,-6.5 c -0.9,-1.4 -1.7,-2.9 -2.4,-4.3 v 0 c 0,1.6 0.1,3.2 0.1,5.3 v 5.5 H 261 Z"
             id="path862" />
          <path
             class="st4"
             d="m 277.9,344.5 c 0.7,0.5 1.8,0.8 3,0.8 1.7,0 2.7,-0.9 2.7,-2.2 0,-1.3 -0.7,-1.9 -2.4,-2.5 -2.1,-0.7 -3.4,-1.8 -3.4,-3.6 0,-1.8 1.7,-3.5 4.1,-3.5 2.4,0 2.3,0.3 2.8,0.6 l -0.5,1.3 c -0.4,-0.2 -1.3,-0.6 -2.4,-0.6 -1.7,0 -2.4,1 -2.4,1.9 0,0.9 0.8,1.8 2.5,2.5 2.2,0.8 3.3,1.9 3.3,3.8 0,1.9 -1.5,3.7 -4.5,3.7 -3,0 -2.6,-0.4 -3.3,-0.8 l 0.4,-1.4 z"
             id="path864" />
          <path
             class="st4"
             d="m 298.7,340.5 h -5 v 4.6 h 5.5 v 1.4 H 292 v -12.8 h 6.9 v 1.4 h -5.3 v 4 h 5 v 1.4 z"
             id="path866" />
          <path
             class="st4"
             d="m 312.6,340.5 h -5 v 4.6 h 5.5 v 1.4 h -7.2 v -12.8 h 6.9 v 1.4 h -5.3 v 4 h 5 v 1.4 z"
             id="path868" />
          <path
             class="st4"
             d="m 330.4,348.4 c -1.7,-0.5 -3.4,-1 -4.9,-1.5 -0.3,0 -0.5,-0.2 -0.8,-0.2 -3,-0.1 -5.6,-2.4 -5.6,-6.5 0,-4.1 2.5,-6.7 6,-6.7 3.5,0 5.7,2.7 5.7,6.5 0,3.8 -1.5,5.4 -3.6,6.1 v 0 c 1.3,0.4 2.7,0.7 3.7,0.9 z m -1.3,-8.3 c 0,-2.6 -1.3,-5.2 -4,-5.2 -2.7,0 -4.2,2.6 -4.1,5.4 0,2.7 1.5,5.2 4.1,5.2 2.6,0 4.1,-2.4 4.1,-5.3 z"
             id="path870" />
        </g>
        <g
           id="g886">
          <path
             class="st4"
             d="m 256.7,352.7 c 0.4,0 1,-0.1 1.5,-0.1 0.8,0 1.4,0.2 1.8,0.5 0.3,0.3 0.5,0.7 0.5,1.2 0,0.8 -0.5,1.3 -1.1,1.6 v 0 c 0.5,0.2 0.8,0.6 0.9,1.3 0.2,0.8 0.3,1.4 0.5,1.7 H 260 c 0,-0.2 -0.2,-0.7 -0.4,-1.5 -0.2,-0.8 -0.5,-1.2 -1.2,-1.2 h -0.7 v 2.6 h -0.8 v -6 z m 0.7,2.8 h 0.8 c 0.8,0 1.4,-0.5 1.4,-1.2 0,-0.7 -0.6,-1.1 -1.4,-1.1 -0.4,0 -0.7,0 -0.8,0 v 2.2 z"
             id="path874" />
          <path
             class="st4"
             d="m 269.6,355.9 h -2.4 v 2.2 h 2.6 v 0.7 h -3.4 v -6.1 h 3.3 v 0.7 h -2.5 v 1.9 h 2.4 v 0.7 z"
             id="path876" />
          <path
             class="st4"
             d="m 276.7,356.8 -0.6,1.9 h -0.8 l 2.1,-6.1 h 1 l 2.1,6.1 h -0.8 l -0.7,-1.9 h -2.2 z m 2,-0.6 -0.6,-1.8 c -0.1,-0.4 -0.2,-0.8 -0.3,-1.1 v 0 c 0,0.4 -0.2,0.7 -0.3,1.1 l -0.6,1.8 z"
             id="path878" />
          <path
             class="st4"
             d="m 286.2,352.6 h 0.8 v 5.4 h 2.6 v 0.7 h -3.4 z"
             id="path880" />
          <path
             class="st4"
             d="m 295.7,353.3 h -1.9 v -0.7 h 4.5 v 0.7 h -1.9 v 5.4 h -0.8 v -5.4 z"
             id="path882" />
          <path
             class="st4"
             d="m 305.5,358.7 v -2.6 l -1.9,-3.5 h 0.9 l 0.9,1.7 c 0.2,0.5 0.4,0.8 0.6,1.3 v 0 c 0.2,-0.4 0.4,-0.8 0.6,-1.3 l 0.9,-1.7 h 0.9 l -2,3.5 v 2.6 h -0.8 z"
             id="path884" />
        </g>
      </g>
      <g
         id="g958">
        <g
           id="g916">
          <path
             class="st4"
             d="m 202,463.2 c 0,2.3 -1.8,4.1 -4.1,4.1 -2.3,0 -4.1,-1.8 -4.1,-4.1 0,-2.3 1.8,-4.1 4.1,-4.1 2.3,0 4.1,1.8 4.1,4.1 z"
             id="path890" />
          <g
             id="g914">
            <path
               class="st3"
               d="m 206.7,459.7 c 0.4,0 0.9,-0.1 1.4,-0.1 0.5,0 1.4,0.2 1.8,0.6 0.3,0.3 0.5,0.8 0.5,1.3 0,0.5 -0.2,1 -0.5,1.3 -0.4,0.5 -1.2,0.8 -2,0.8 -0.8,0 -0.6,0 -0.8,0 v 2.9 h -0.5 v -6.7 z m 0.5,3.3 c 0.2,0 0.5,0 0.9,0 1.2,0 1.9,-0.6 1.9,-1.6 0,-1 -0.8,-1.5 -1.8,-1.5 -1,0 -0.8,0 -0.9,0 v 3 z"
               id="path892" />
            <path
               class="st3"
               d="m 214.4,465.2 c 0,0.4 0,0.8 0,1.1 H 214 v -0.7 0 c -0.2,0.4 -0.8,0.8 -1.5,0.8 -0.7,0 -1.4,-0.7 -1.4,-1.3 0,-1.1 1,-1.8 2.9,-1.8 v 0 c 0,-0.6 0,-1.5 -1.2,-1.5 -0.4,0 -0.9,0.1 -1.2,0.4 l -0.2,-0.3 c 0.4,-0.3 1,-0.4 1.4,-0.4 1.4,0 1.7,1 1.7,1.9 v 1.9 z m -0.5,-1.4 c -1,0 -2.4,0.1 -2.4,1.3 0,1.2 0.5,1 1,1 0.8,0 1.3,-0.5 1.4,-1 0,0 0,-0.2 0,-0.3 z"
               id="path894" />
            <path
               class="st3"
               d="m 216,462.7 c 0,-0.4 0,-0.8 0,-1.1 h 0.4 v 0.9 0 c 0.3,-0.5 0.9,-1 1.6,-1 0.7,0 1.7,0.2 1.7,2 v 2.9 h -0.5 v -2.8 c 0,-0.9 -0.3,-1.7 -1.3,-1.7 -1,0 -1.2,0.5 -1.4,1.1 0,0.1 0,0.3 0,0.4 v 3 H 216 v -3.6 z"
               id="path896" />
            <path
               class="st3"
               d="m 222,460.5 v 1.1 h 1.4 V 462 H 222 v 3.1 c 0,0.6 0.2,1 0.7,1 0.5,0 0.4,0 0.5,0 v 0.4 c 0,0 -0.3,0.1 -0.6,0.1 -0.3,0 -0.6,-0.1 -0.8,-0.3 -0.2,-0.2 -0.3,-0.7 -0.3,-1.1 v -3 h -0.8 v -0.4 h 0.8 v -0.9 l 0.5,-0.2 z"
               id="path898" />
            <path
               class="st3"
               d="m 226.1,466.5 c -1.2,0 -2.2,-1 -2.2,-2.5 0,-1.5 1.1,-2.5 2.3,-2.5 1.2,0 2.2,1 2.2,2.5 0,1.5 -1.2,2.5 -2.3,2.5 z m 0.1,-0.4 c 1,0 1.8,-0.9 1.8,-2.1 0,-1.2 -0.5,-2.1 -1.8,-2.1 -1.3,0 -1.8,1.1 -1.8,2.1 0,1 0.8,2.1 1.7,2.1 v 0 z"
               id="path900" />
            <path
               class="st3"
               d="m 229.7,462.7 c 0,-0.4 0,-0.8 0,-1.1 h 0.5 v 0.9 0 c 0.3,-0.5 0.9,-1 1.6,-1 0.7,0 1.7,0.2 1.7,2 v 2.9 H 233 v -2.8 c 0,-0.9 -0.3,-1.7 -1.3,-1.7 -1,0 -1.2,0.5 -1.4,1.1 0,0.1 0,0.3 0,0.4 v 3 h -0.5 v -3.6 z"
               id="path902" />
            <path
               class="st3"
               d="m 235.1,463.9 c 0,1.5 0.8,2.1 1.8,2.1 1,0 1.1,-0.1 1.3,-0.3 v 0.4 c 0,0 -0.5,0.3 -1.4,0.3 -1.4,0 -2.2,-1 -2.2,-2.4 0,-1.4 0.9,-2.6 2.2,-2.6 1.3,0 1.9,1.5 1.9,2.2 0,0.7 0,0.2 0,0.3 h -3.5 z m 3.1,-0.4 c 0,-0.7 -0.3,-1.7 -1.4,-1.7 -1.1,0 -1.5,0.9 -1.6,1.7 z"
               id="path904" />
            <path
               class="st3"
               d="M 241.7,466.3 V 466 l 0.6,-0.6 c 1.8,-1.8 2.6,-2.7 2.6,-3.8 0,-1.1 -0.3,-1.5 -1.4,-1.5 -1.1,0 -1.1,0.3 -1.4,0.6 l -0.2,-0.3 c 0.4,-0.4 1,-0.7 1.7,-0.7 1.3,0 1.8,1 1.8,1.8 0,1.3 -0.9,2.3 -2.6,3.9 l -0.5,0.5 v 0 c 0,0 3.2,0 3.2,0 v 0.4 h -3.9 z"
               id="path906" />
            <path
               class="st3"
               d="m 247.1,466 c 0.2,0 0.4,0 0.7,0 0.5,0 1,-0.3 1.4,-0.8 0.4,-0.5 0.8,-1.1 0.9,-2.1 v 0 c -0.4,0.5 -1,0.8 -1.7,0.8 -1.2,0 -1.8,-0.9 -1.8,-2 0,-1.1 0.8,-2.3 2.1,-2.3 1.3,0 2,0.9 2,2.7 0,1.8 -0.5,2.5 -1.1,3.1 -0.4,0.4 -1,0.7 -1.5,0.8 -0.3,0 -0.7,0 -0.9,0 v -0.4 z m 1.5,-5.9 c -0.9,0 -1.5,0.8 -1.5,1.9 0,1.1 0.6,1.6 1.5,1.6 0.9,0 1.3,-0.4 1.5,-0.8 0,0 0,-0.2 0,-0.3 0,-1.4 -0.5,-2.3 -1.6,-2.3 v 0 z"
               id="path908" />
            <path
               class="st3"
               d="m 254.2,466.3 v -1.9 h -3.1 v -0.3 l 3.2,-4.3 h 0.4 v 4.2 h 1 v 0.4 h -1 v 1.9 z m 0,-2.3 v -2.6 c 0,-0.3 0,-0.6 0,-0.9 v 0 c -0.2,0.4 -0.3,0.6 -0.5,0.8 l -2,2.7 v 0 c 0,0 2.5,0 2.5,0 z"
               id="path910" />
            <path
               class="st3"
               d="m 263.5,466.1 c -0.3,0.2 -1,0.3 -1.8,0.3 -1.6,0 -3.2,-1 -3.2,-3.4 0,-2.4 1.3,-3.5 3.4,-3.5 2.1,0 1.4,0.2 1.6,0.3 l -0.2,0.4 c -0.3,-0.2 -0.8,-0.3 -1.4,-0.3 -1.8,0 -2.9,1.2 -2.9,3.1 0,1.9 1,3 2.8,3 1.8,0 1.1,-0.1 1.5,-0.3 v 0.4 z"
               id="path912" />
          </g>
        </g>
        <g
           id="g956">
          <path
             class="st5"
             d="m 280.3,462 c 0,2.3 -1.8,4.1 -4.1,4.1 -2.3,0 -4.1,-1.8 -4.1,-4.1 0,-2.3 1.8,-4.1 4.1,-4.1 2.3,0 4.1,1.8 4.1,4.1 z"
             id="path918" />
          <g
             id="g954">
            <path
               class="st3"
               d="m 285,459.5 c 0.4,0 0.9,-0.1 1.4,-0.1 0.5,0 1.4,0.2 1.8,0.6 0.3,0.3 0.5,0.8 0.5,1.3 0,0.5 -0.2,1 -0.5,1.3 -0.4,0.5 -1.1,0.7 -2,0.7 -0.9,0 -0.6,0 -0.8,0 v 2.9 h -0.5 v -6.7 z m 0.5,3.4 c 0.2,0 0.5,0 0.9,0 1.2,0 1.9,-0.6 1.9,-1.7 0,-1.1 -0.8,-1.5 -1.8,-1.5 -1,0 -0.8,0 -0.9,0 v 3 z"
               id="path920" />
            <path
               class="st3"
               d="m 292.7,465 c 0,0.4 0,0.8 0,1.1 h -0.4 v -0.7 0 c -0.2,0.4 -0.8,0.8 -1.5,0.8 -0.7,0 -1.4,-0.7 -1.4,-1.3 0,-1.1 1,-1.8 2.9,-1.8 v 0 c 0,-0.6 0,-1.5 -1.2,-1.5 -0.4,0 -0.9,0.1 -1.2,0.4 l -0.2,-0.3 c 0.4,-0.3 1,-0.4 1.4,-0.4 1.4,0 1.7,1 1.7,1.9 v 1.9 z m -0.5,-1.4 c -1.1,0 -2.4,0.1 -2.4,1.3 0,1.2 0.5,1 1,1 0.8,0 1.3,-0.5 1.4,-1 0,-0.1 0,-0.2 0,-0.3 z"
               id="path922" />
            <path
               class="st3"
               d="m 294.3,462.5 c 0,-0.4 0,-0.8 0,-1.1 h 0.5 v 0.9 0 c 0.3,-0.5 0.9,-1 1.6,-1 0.7,0 1.7,0.2 1.7,2 v 2.9 h -0.5 v -2.8 c 0,-0.9 -0.3,-1.7 -1.3,-1.7 -1,0 -1.2,0.5 -1.4,1.1 0,0.1 0,0.3 0,0.4 v 3 h -0.5 v -3.6 z"
               id="path924" />
            <path
               class="st3"
               d="m 300.3,460.3 v 1.1 h 1.4 v 0.4 h -1.4 v 3.1 c 0,0.6 0.2,1 0.7,1 0.5,0 0.4,0 0.6,0 v 0.4 c -0.1,0 -0.3,0.1 -0.6,0.1 -0.3,0 -0.6,-0.1 -0.8,-0.3 -0.2,-0.2 -0.3,-0.7 -0.3,-1.2 v -3 h -0.8 v -0.4 h 0.8 v -0.9 l 0.5,-0.2 z"
               id="path926" />
            <path
               class="st3"
               d="m 304.5,466.3 c -1.2,0 -2.2,-1 -2.2,-2.5 0,-1.5 1.1,-2.5 2.3,-2.5 1.2,0 2.2,1 2.2,2.5 0,1.5 -1.2,2.5 -2.3,2.5 z m 0,-0.4 c 1,0 1.8,-0.9 1.8,-2.1 0,-1.2 -0.5,-2.1 -1.8,-2.1 -1.3,0 -1.8,1.1 -1.8,2.1 0,1 0.8,2.1 1.7,2.1 v 0 z"
               id="path928" />
            <path
               class="st3"
               d="m 308,462.5 c 0,-0.4 0,-0.8 0,-1.1 h 0.4 v 0.9 0 c 0.3,-0.5 0.9,-1 1.6,-1 0.7,0 1.7,0.2 1.7,2 v 2.9 h -0.5 v -2.8 c 0,-0.9 -0.3,-1.7 -1.3,-1.7 -1,0 -1.2,0.5 -1.4,1.1 0,0.1 0,0.3 0,0.4 v 3 H 308 v -3.6 z"
               id="path930" />
            <path
               class="st3"
               d="m 313.4,463.7 c 0,1.5 0.8,2.1 1.8,2.1 1,0 1.1,-0.1 1.3,-0.3 v 0.4 c 0,0 -0.6,0.3 -1.4,0.3 -1.4,0 -2.2,-1 -2.2,-2.4 0,-1.4 0.9,-2.6 2.2,-2.6 1.3,0 1.9,1.5 1.9,2.2 0,0.7 0,0.2 0,0.3 h -3.5 z m 3.1,-0.4 c 0,-0.7 -0.3,-1.7 -1.4,-1.7 -1.1,0 -1.5,0.9 -1.6,1.7 z"
               id="path932" />
            <path
               class="st3"
               d="m 325,465.9 c -0.3,0.2 -1,0.3 -1.8,0.3 -1.6,0 -3.2,-1 -3.2,-3.4 0,-2.4 1.3,-3.5 3.4,-3.5 2.1,0 1.4,0.2 1.6,0.3 v 0.4 c -0.5,-0.2 -1,-0.3 -1.5,-0.3 -1.8,0 -2.9,1.2 -2.9,3.1 0,1.9 1,3 2.8,3 1.8,0 1.1,-0.1 1.5,-0.3 v 0.4 z"
               id="path934" />
            <path
               class="st3"
               d="m 327.8,466.3 c -1.2,0 -2.2,-1 -2.2,-2.5 0,-1.5 1.1,-2.5 2.3,-2.5 1.2,0 2.2,1 2.2,2.5 0,1.5 -1.2,2.5 -2.3,2.5 z m 0.1,-0.4 c 1,0 1.8,-0.9 1.8,-2.1 0,-1.2 -0.5,-2.1 -1.8,-2.1 -1.3,0 -1.8,1.1 -1.8,2.1 0,1 0.8,2.1 1.7,2.1 v 0 z"
               id="path936" />
            <path
               class="st3"
               d="m 333.1,466.3 c -1.2,0 -2.2,-1 -2.2,-2.5 0,-1.5 1.1,-2.5 2.3,-2.5 1.2,0 2.2,1 2.2,2.5 0,1.5 -1.2,2.5 -2.3,2.5 z m 0.1,-0.4 c 1,0 1.8,-0.9 1.8,-2.1 0,-1.2 -0.5,-2.1 -1.8,-2.1 -1.3,0 -1.8,1.1 -1.8,2.1 0,1 0.8,2.1 1.7,2.1 v 0 z"
               id="path938" />
            <path
               class="st3"
               d="m 336.7,459.1 h 0.5 v 7.1 h -0.5 z"
               id="path940" />
            <path
               class="st3"
               d="m 345.8,465.9 c -0.3,0.1 -1,0.4 -2,0.4 -1,0 -1.7,-0.2 -2.4,-0.9 -0.6,-0.5 -0.9,-1.4 -0.9,-2.5 0,-1.9 1.2,-3.5 3.5,-3.5 2.3,0 1.3,0.2 1.6,0.3 l -0.2,0.4 c -0.3,-0.2 -0.8,-0.3 -1.4,-0.3 -1.8,0 -3,1.2 -3,3 0,1.8 1.1,3 2.9,3 1.8,0 1.2,0 1.4,-0.2 v -2.4 h -1.6 v -0.4 h 2 v 3 z"
               id="path942" />
            <path
               class="st3"
               d="m 347.2,462.8 c 0,-0.5 0,-1 0,-1.4 h 0.4 v 1 0 c 0.2,-0.6 0.7,-1.1 1.4,-1.1 0.7,0 0.1,0 0.2,0 v 0.4 c 0,0 -0.1,0 -0.2,0 -0.7,0 -1.1,0.6 -1.3,1.3 0,0.1 0,0.3 0,0.5 v 2.6 h -0.5 v -3.4 z"
               id="path944" />
            <path
               class="st3"
               d="m 353.2,465 c 0,0.4 0,0.8 0,1.1 h -0.4 v -0.7 0 c -0.2,0.4 -0.8,0.8 -1.5,0.8 -0.7,0 -1.4,-0.7 -1.4,-1.3 0,-1.1 1,-1.8 2.9,-1.8 v 0 c 0,-0.6 0,-1.5 -1.2,-1.5 -0.4,0 -0.9,0.1 -1.2,0.4 l -0.2,-0.3 c 0.4,-0.3 1,-0.4 1.4,-0.4 1.4,0 1.7,1 1.7,1.9 v 1.9 z m -0.5,-1.4 c -1.1,0 -2.4,0.1 -2.4,1.3 0,1.2 0.5,1 1,1 0.8,0 1.3,-0.5 1.4,-1 0,-0.1 0,-0.2 0,-0.3 z"
               id="path946" />
            <path
               class="st3"
               d="m 354.5,461.4 1.3,3.1 c 0.1,0.3 0.3,0.7 0.3,1 v 0 c 0,-0.3 0.2,-0.7 0.4,-1.1 l 1.2,-3.1 h 0.5 l -1.4,3.6 c -0.6,1.5 -1,2.4 -1.6,2.9 -0.4,0.3 -0.7,0.5 -0.8,0.5 v -0.4 c 0,0 0.4,-0.3 0.7,-0.5 0.2,-0.2 0.6,-0.6 0.8,-1.2 0,0 0,-0.2 0,-0.2 0,0 0,-0.1 0,-0.2 l -1.8,-4.4 h 0.5 z"
               id="path948" />
            <path
               class="st3"
               d="m 361.4,465.8 c 0.2,0 0.4,0 0.7,0 0.5,0 1,-0.3 1.4,-0.8 0.4,-0.5 0.8,-1.1 0.9,-2.1 v 0 c -0.4,0.5 -1,0.8 -1.7,0.8 -1.2,0 -1.8,-0.9 -1.8,-2 0,-1.1 0.8,-2.3 2.1,-2.3 1.3,0 2,0.9 2,2.7 0,1.8 -0.5,2.5 -1.1,3.1 -0.4,0.4 -1,0.7 -1.5,0.8 -0.3,0 -0.7,0.1 -0.9,0 v -0.4 z m 1.5,-5.8 c -0.9,0 -1.5,0.8 -1.5,1.9 0,1.1 0.6,1.6 1.5,1.6 0.9,0 1.3,-0.4 1.5,-0.8 0,0 0,-0.2 0,-0.3 0,-1.4 -0.5,-2.3 -1.6,-2.3 v 0 z"
               id="path950" />
            <path
               class="st3"
               d="m 372.9,465.9 c -0.3,0.2 -1,0.3 -1.8,0.3 -1.6,0 -3.2,-1 -3.2,-3.4 0,-2.4 1.3,-3.5 3.4,-3.5 2.1,0 1.4,0.2 1.6,0.3 v 0.4 c -0.5,-0.2 -1,-0.3 -1.5,-0.3 -1.8,0 -2.9,1.2 -2.9,3.1 0,1.9 1,3 2.8,3 1.8,0 1.1,-0.1 1.5,-0.3 v 0.4 z"
               id="path952" />
          </g>
        </g>
      </g>
    </g>
    <g
       id="g1056"
       transform="matrix(0.26458333,0,0,0.26458333,27.742024,63.619838)">
      <g
         id="g1020"
         transform="matrix(7.4173912,0,0,7.4173912,-1863.1584,-1372.365)">
        <path
           class="st0"
           d="m 304.55067,258.65078 c 1.07665,-0.80748 1.48038,-1.3458 0.94206,-1.61497 -2.28788,-1.61497 -6.05615,-4.03742 -6.72904,-4.17201 -0.53834,0 -1.34583,0.6729 -2.42248,1.48039 -1.74955,1.48039 -1.74955,1.74955 -1.48039,2.1533 0.13459,0.26916 1.74956,1.21122 3.22995,2.01871 1.61497,0.94207 3.09537,1.74956 3.36452,1.74956 0.40375,0 2.01873,-1.07666 2.96079,-1.74956"
           id="path962"
           style="stroke-width:1.3458" />
        <path
           class="st0"
           d="m 331.60146,259.45827 c 1.61497,2.96078 2.55704,6.05615 2.15331,9.42068 -0.13459,1.21123 -0.94208,6.19072 -2.01874,8.61319 -2.15329,4.9795 -21.80212,28.26202 -39.0285,24.62833 -19.37967,-4.03742 -18.16845,-30.95365 -15.20766,-39.29767 -0.67292,3.63368 -0.94208,11.70855 0.26916,17.7647 1.88414,9.82442 9.959,15.6114 20.05258,13.32352 7.53654,-1.74955 15.20766,-6.45988 20.72549,-10.36274 8.07485,-5.65239 12.65062,-11.03565 12.7852,-14.40017 0.13457,-5.78699 -14.93849,-13.45812 -9.42069,-25.70499 0,2.01872 1.34583,4.3066 3.36454,6.86364 0,0 1.61497,2.01871 4.9795,2.1533 2.96078,0.13458 7.40196,-1.21124 9.01692,-4.44119 0.40375,-0.94206 0.40375,-4.44117 -2.82619,-6.45989 -0.6729,-0.40374 1.61498,-8.4786 2.42247,-7.94028 5.38323,3.49912 3.90284,13.32353 1.07663,18.84136 -2.96078,5.65239 -6.86362,6.72904 -8.07486,6.99821 v 0 z"
           id="path964"
           style="stroke-width:1.3458" />
        <path
           class="st0"
           d="m 331.19772,223.25596 c 1.07665,-0.6729 1.34581,-1.07665 0.94206,-1.34581 -2.01871,-1.61497 -5.11408,-3.90286 -5.78698,-4.03744 -0.40374,0 -1.21124,0.53832 -2.1533,1.21123 -1.61497,1.21124 -1.61497,1.48039 -1.48039,1.88414 0.13458,0.26917 1.48039,1.21123 2.69162,2.01872 1.34581,0.94206 2.55705,1.74956 2.96079,1.74956 0.40374,0 1.88413,-0.8075 2.8262,-1.34582"
           id="path966"
           style="stroke-width:1.3458" />
        <path
           class="st0"
           d="m 333.21643,229.85044 c 1.07665,-0.67292 1.34581,-1.07665 0.94207,-1.34583 -2.01872,-1.61496 -5.11407,-3.90284 -5.78698,-4.03742 -0.40374,0 -1.21124,0.53833 -2.15329,1.21122 -1.61499,1.21124 -1.61499,1.4804 -1.4804,1.88415 0,0.26916 1.4804,1.21123 2.69161,2.01871 1.34582,0.94206 2.55705,1.74956 2.96079,1.74956 0.40375,0 1.88414,-0.8075 2.8262,-1.48039"
           id="path968"
           style="stroke-width:1.3458" />
        <path
           class="st0"
           d="m 256.90896,227.56256 c 12.24688,5.11408 25.83957,11.57397 23.01337,20.18716 5.6524,-10.36274 -10.22817,-16.68806 -22.0713,-22.07131 -13.18894,-5.92155 -26.10874,-10.63189 -13.05437,-21.93671 -14.80391,11.70856 -2.01871,17.76471 11.97772,23.68627"
           id="path970"
           style="stroke-width:1.3458" />
        <path
           class="st0"
           d="m 300.91698,228.50461 c 4.57575,-1.74954 6.99821,-4.03742 8.74776,-6.86363 3.09537,-5.24866 4.30659,-15.34224 -1.07664,-18.84135 -0.94207,-0.53832 -3.09537,7.40197 -2.42246,7.94029 3.36452,2.15329 3.36452,5.6524 2.82619,6.4599 -3.09535,6.05614 -17.89927,6.9982 -24.22459,5.65239 -2.28787,-0.40374 -3.63367,-0.94206 -3.90284,-2.96078 0,-1.4804 2.42245,-4.3066 5.78697,-3.09536 8.88237,2.96079 11.84315,14.66933 11.84315,14.80392 0,3.49911 -4.30661,8.34403 -12.24689,14.13101 -5.51781,4.03743 -12.78519,7.67111 -20.32173,9.55526 -10.09358,2.42245 -18.16845,-3.22995 -20.32174,-13.05437 -1.21124,-6.05615 -1.07666,-14.13101 -0.53834,-17.7647 -2.8262,8.4786 -3.76827,35.26024 15.746,39.16309 17.22637,3.36453 35.93314,-18.57219 38.08643,-23.68626 1.07665,-2.55704 1.74956,-6.4599 1.88415,-7.80571 1.07664,-8.88235 -6.4599,-22.34046 -13.18895,-23.01336 -5.11408,-0.53833 -10.36275,5.24865 -10.36275,12.51603 0,4.84492 1.88414,7.40197 5.51783,8.07487 4.30659,0.80748 7.53654,0.94206 15.47682,-0.6729 l 2.69163,-0.8075 z"
           id="path972"
           style="stroke-width:1.3458" />
        <path
           class="st0"
           d="m 268.34836,282.33705 c 8.88234,-4.9795 12.91977,-8.74778 16.82263,-9.55525 0,0 -0.40375,0.53831 -0.67291,1.48039 -3.36451,8.07486 0.53833,10.6319 4.17203,10.6319 7.6711,0 14.131,-5.6524 16.82262,-8.4786 0.26916,0.94206 0.94206,3.36452 3.09537,3.49911 3.90285,0.53832 7.67112,-1.61499 10.09358,-7.53654 2.15329,-4.9795 2.28788,-14.13102 -2.55703,-16.68807 -0.8075,-0.40373 -1.88415,6.99823 -1.34583,7.26739 2.96079,1.61497 3.22995,4.57575 2.96079,5.51782 -1.07665,3.09536 -5.11408,4.9795 -7.13279,4.57576 -1.74955,-0.26916 -2.96079,-2.01872 -2.55705,-3.22994 0.40375,-1.07666 0.67291,-6.19074 0,-4.71034 -1.34581,3.09535 -11.03565,14.26558 -20.05258,12.38146 -2.8262,-0.53833 -1.74956,-4.71034 -0.80748,-5.51783 0.53832,-0.40375 0.6729,-1.88413 0.94206,-4.03743 0.26916,-2.69162 0,-3.63369 -0.80749,-3.76827 -3.63369,-0.40375 -11.17023,5.92157 -20.05257,10.90106 0,0 -2.96079,2.1533 -6.99822,3.22994 -6.99821,1.74957 -13.86185,-1.07664 -15.88057,-8.88234 -0.94207,-3.76828 -1.48039,-9.55526 0,-14.9385 -0.94207,2.01872 -2.82621,9.15151 -2.1533,16.41889 0.80749,9.95899 11.03566,19.51426 26.10874,11.17023"
           id="path974"
           style="stroke-width:1.3458" />
        <path
           class="st0"
           d="m 289.88132,193.51354 c 1.07666,-0.67291 1.34583,-1.07665 0.94208,-1.34581 -2.01873,-1.61497 -5.11408,-3.90285 -5.78699,-4.03744 -0.40375,0 -1.21124,0.53833 -2.15329,1.21124 -1.61499,1.21123 -1.61499,1.48039 -1.4804,1.88413 0,0.26917 1.4804,1.21123 2.69161,2.01871 1.34583,0.94207 2.55704,1.74956 2.96079,1.74956 0.40375,0 1.88414,-0.80749 2.8262,-1.48039"
           id="path976"
           style="stroke-width:1.3458" />
        <path
           class="st0"
           d="m 291.90004,200.10802 c 1.07666,-0.67291 1.34582,-1.07666 0.94207,-1.34582 -2.01871,-1.61497 -5.11408,-3.90284 -5.78699,-4.03743 -0.40375,0 -1.21123,0.53831 -2.15329,1.21123 -1.61498,1.21123 -1.74955,1.4804 -1.48039,1.88413 0,0.26917 1.48039,1.21123 2.69162,2.01873 1.34581,0.94205 2.55705,1.74955 2.96077,1.74955 0.40375,0 1.88415,-0.8075 2.82621,-1.34582"
           id="path978"
           style="stroke-width:1.3458" />
        <path
           class="st0"
           d="m 313.5676,236.84865 c 1.07665,-0.67291 1.34581,-1.07666 0.94206,-1.34582 -2.01871,-1.61497 -5.11408,-3.90284 -5.78698,-4.03743 -0.40374,0 -1.21124,0.53833 -2.1533,1.21124 -1.61498,1.21122 -1.61498,1.48039 -1.48039,1.88414 0,0.26916 1.48039,1.21121 2.69162,2.01871 1.34581,0.94206 2.55705,1.74954 2.96078,1.74954 0.40375,0 1.88414,-0.80748 2.82621,-1.3458"
           id="path980"
           style="stroke-width:1.3458" />
        <path
           class="st0"
           d="m 315.58631,243.44312 c 1.07665,-0.6729 1.34581,-1.07664 0.94206,-1.34581 -2.01871,-1.61498 -5.11406,-3.90285 -5.78698,-4.03744 -0.40373,0 -1.21123,0.53833 -2.15329,1.21124 -1.61498,1.21122 -1.61498,1.48038 -1.48039,1.88413 0,0.26917 1.48039,1.21124 2.69161,2.01872 1.34582,0.94206 2.55705,1.74956 2.96079,1.74956 0.40375,0 1.88414,-0.8075 2.8262,-1.4804"
           id="path982"
           style="stroke-width:1.3458" />
        <path
           class="st0"
           d="m 283.01769,156.1 c 5.51783,26.10874 -29.47326,38.62477 -35.5294,61.77271 1.48039,-22.74419 37.41354,-36.60605 35.5294,-61.77271"
           id="path984"
           style="stroke-width:1.3458" />
      </g>
    </g>
  </g>
</svg>
